{
  "accessors": [
    {
      "bufferView": 2,
      "componentType": 5126,
      "count": 5884,
      "max": [
        9.955810546875,
        229.50210571289063,
        21.940513610839844
      ],
      "min": [
        -73.20382690429688,
        0.0,
        -13.239982604980469
      ],
      "type": "VEC3"
    },
    {
      "bufferView": 2,
      "byteOffset": 70608,
      "componentType": 5126,
      "count": 5884,
      "max": [
        1.0,
        1.0,
        1.0
      ],
      "min": [
        -1.0,
        -1.0,
        -1.0
      ],
      "type": "VEC3"
    },
    {
      "bufferView": 3,
      "componentType": 5126,
      "count": 5884,
      "max": [
        1.0,
        0.9998782277107239,
        0.9999992847442627,
        1.0
      ],
      "min": [
        -0.9999980330467224,
        -0.9999815225601196,
        -1.0,
        1.0
      ],
      "type": "VEC4"
    },
    {
      "bufferView": 1,
      "componentType": 5126,
      "count": 5884,
      "max": [
        0.9996665120124817,
        1.0
      ],
      "min": [
        0.0,
        2.2175729134932265e-15
      ],
      "type": "VEC2"
    },
    {
      "bufferView": 0,
      "componentType": 5125,
      "count": 26304,
      "type": "SCALAR"
    }
  ],
  "asset": {
    "extras": {
      "author": "WorldwideCookie (https://sketchfab.com/NomedaRepsaite)",
      "license": "CC-BY-4.0 (http://creativecommons.org/licenses/by/4.0/)",
      "source": "https://sketchfab.com/3d-models/low-poly-emergency-shower-b3916340ffaa4b80b8c2eaab96c3efba",
      "title": "Low Poly Emergency Shower"
    },
    "generator": "Sketchfab-15.44.0",
    "version": "2.0"
  },
  "bufferViews": [
    {
      "buffer": 0,
      "byteLength": 105216,
      "name": "floatBufferViews",
      "target": 34963
    },
    {
      "buffer": 0,
      "byteLength": 47072,
      "byteOffset": 105216,
      "byteStride": 8,
      "name": "floatBufferViews",
      "target": 34962
    },
    {
      "buffer": 0,
      "byteLength": 141216,
      "byteOffset": 152288,
      "byteStride": 12,
      "name": "floatBufferViews",
      "target": 34962
    },
    {
      "buffer": 0,
      "byteLength": 94144,
      "byteOffset": 293504,
      "byteStride": 16,
      "name": "floatBufferViews",
      "target": 34962
    }
  ],
  "buffers": [
    {
      "byteLength": 387648,
      "uri": "scene.bin"
    }
  ],
  "images": [
    {
      "uri": "textures/Emergency_Shower_baseColor.png"
    },
    {
      "uri": "textures/Emergency_Shower_metallicRoughness.png"
    },
    {
      "uri": "textures/Emergency_Shower_normal.png"
    }
  ],
  "materials": [
    {
      "doubleSided": true,
      "name": "Emergency_Shower",
      "normalTexture": {
        "index": 2
      },
      "pbrMetallicRoughness": {
        "baseColorTexture": {
          "index": 0
        },
        "metallicRoughnessTexture": {
          "index": 1
        }
      }
    }
  ],
  "meshes": [
    {
      "name": "Emergency_Shower_GEO_Emergency_Shower_0",
      "primitives": [
        {
          "attributes": {
            "NORMAL": 1,
            "POSITION": 0,
            "TANGENT": 2,
            "TEXCOORD_0": 3
          },
          "indices": 4,
          "material": 0,
          "mode": 4
        }
      ]
    }
  ],
  "nodes": [
    {
      "children": [
        1
      ],
      "matrix": [
        1.0,
        0.0,
        0.0,
        0.0,
        0.0,
        2.220446049250313e-16,
        -1.0,
        0.0,
        0.0,
        1.0,
        2.220446049250313e-16,
        0.0,
        0.0,
        0.0,
        0.0,
        1.0
      ],
      "name": "Sketchfab_model"
    },
    {
      "children": [
        2
      ],
      "matrix": [
        1.0,
        0.0,
        0.0,
        0.0,
        0.0,
        0.0,
        1.0,
        0.0,
        0.0,
        -1.0,
        0.0,
        0.0,
        0.0,
        0.0,
        0.0,
        1.0
      ],
      "name": "f58102043e524cf892b5a54c1989f031.fbx"
    },
    {
      "children": [
        3
      ],
      "name": "RootNode"
    },
    {
      "children": [
        4
      ],
      "matrix": [
        0.009999999776482582,
        0.0,
        0.0,
        0.0,
        0.0,
        0.009999999776482582,
        0.0,
        0.0,
        0.0,
        0.0,
        0.009999999776482582,
        0.0,
        0.0,
        0.0,
        0.0,
        1.0
      ],
      "name": "Emergency_Shower_GEO"
    },
    {
      "mesh": 0,
      "name": "Emergency_Shower_GEO_Emergency_Shower_0"
    }
  ],
  "samplers": [
    {
      "magFilter": 9729,
      "minFilter": 9987,
      "wrapS": 10497,
      "wrapT": 10497
    }
  ],
  "scene": 0,
  "scenes": [
    {
      "name": "Sketchfab_Scene",
      "nodes": [
        0
      ]
    }
  ],
  "textures": [
    {
      "sampler": 0,
      "source": 0
    },
    {
      "sampler": 0,
      "source": 1
    },
    {
      "sampler": 0,
      "source": 2
    }
  ]
}
